<?xml version="1.0" encoding="utf-8"?>
<!-- Generator: Adobe Illustrator 26.0.3, SVG Export Plug-In . SVG Version: 6.00 Build 0)  -->
<svg version="1.1" xmlns="http://www.w3.org/2000/svg" xmlns:xlink="http://www.w3.org/1999/xlink" x="0px" y="0px"
	 viewBox="0 0 512 512" style="enable-background:new 0 0 512 512;" xml:space="preserve">
<style type="text/css">
	.st0{display:none;}
	.st1{display:inline;fill:#DCDAC3;}
	.st2{fill:url(#SVGID_1_);stroke:#000000;stroke-width:2;stroke-miterlimit:10;}
</style>
<g id="Background" class="st0">
	<rect class="st1" width="512" height="512"/>
</g>
<g id="Vrstva_1">
	<linearGradient id="SVGID_1_" gradientUnits="userSpaceOnUse" x1="417.1144" y1="99.4818" x2="60.033" y2="456.5632">
		<stop  offset="0" style="stop-color:#E30613"/>
		<stop  offset="0.5" style="stop-color:#EA5B0C"/>
		<stop  offset="1" style="stop-color:#FFDE00"/>
	</linearGradient>
	<path class="st2" d="M348.37,317.54c-2.21,2.26-5.43,3.89-9.66,4.88c2.28,0.63,4.01,1.65,5.19,3.06c1.18,1.42,1.77,3.04,1.77,4.88
		c0,2.91-0.91,5.43-2.73,7.56c-1.82,2.13-4.48,3.78-7.97,4.94c-3.5,1.16-7.71,1.74-12.64,1.74c-1.84,0-3.31-0.06-4.41-0.17
		c-0.04,1.03-0.48,1.8-1.32,2.32s-1.93,0.77-3.25,0.77c-1.32,0-2.23-0.29-2.73-0.88c-0.5-0.59-0.71-1.45-0.63-2.59
		c0.33-5.15,0.98-10.55,1.93-16.19c0.96-5.65,2.17-11.1,3.64-16.36c0.26-0.92,0.77-1.56,1.55-1.93c0.77-0.37,1.78-0.55,3.03-0.55
		c2.24,0,3.37,0.63,3.37,1.88c0,0.52-0.11,1.1-0.33,1.76c-0.96,2.87-1.91,6.76-2.87,11.67c-0.96,4.91-1.64,9.59-2.04,14.04
		c1.77,0.15,3.2,0.22,4.3,0.22c5.15,0,8.93-0.75,11.34-2.24c2.41-1.49,3.61-3.39,3.61-5.71c0-1.62-0.69-2.98-2.07-4.08
		s-3.69-1.71-6.92-1.82c-0.74-0.04-1.25-0.22-1.55-0.55c-0.29-0.33-0.44-0.86-0.44-1.6c0-1.07,0.22-1.93,0.66-2.59
		c0.44-0.66,1.25-1.01,2.43-1.05c2.61-0.07,4.97-0.46,7.09-1.16s3.78-1.68,4.99-2.95c1.21-1.27,1.82-2.75,1.82-4.44
		c0-2.13-1.05-3.82-3.14-5.05c-2.1-1.23-5.31-1.85-9.65-1.85c-3.94,0-7.74,0.51-11.42,1.52c-3.68,1.01-6.81,2.29-9.38,3.83
		c-1.18,0.7-2.17,1.05-2.98,1.05c-0.66,0-1.17-0.23-1.52-0.69c-0.35-0.46-0.52-1.04-0.52-1.74c0-0.92,0.19-1.71,0.58-2.37
		c0.39-0.66,1.31-1.42,2.79-2.26c3.09-1.77,6.71-3.14,10.87-4.14c4.16-0.99,8.4-1.49,12.74-1.49c6.66,0,11.62,1.12,14.9,3.37
		c3.27,2.24,4.91,5.2,4.91,8.88C351.68,312.58,350.57,315.28,348.37,317.54z M509.3,319.39c-0.34-0.22-0.92-0.33-1.77-0.33
		c-1.21,0-2.12,0.24-2.73,0.71c-0.61,0.48-1.06,1.27-1.35,2.38c-0.88,3.27-1.79,6.03-2.73,8.27c-0.94,2.24-1.82,3.92-2.65,5.02
		c-0.83,1.1-1.52,1.66-2.07,1.66c-0.77,0-1.16-0.7-1.16-2.1c0-0.88,0.11-2.01,0.33-3.39c0.22-1.38,0.48-2.83,0.77-4.33
		c0.23-1.11,0.52-2.34,0.89-3.7c0.4-1.69,0.6-2.68,0.6-2.98c0-0.51-0.15-0.9-0.46-1.16c-0.32-0.26-0.88-0.38-1.69-0.38
		c-1.43,0-2.48,0.24-3.14,0.71c-0.66,0.48-1.18,1.27-1.55,2.38c-0.84,2.57-1.45,5.01-1.82,7.31c-0.16,0.98-0.28,2.01-0.37,3.09
		c-0.34,0.11-0.66,0.34-0.95,0.68c-1.69,2.03-3.04,3.49-4.06,4.39c-1.01,0.9-1.88,1.35-2.62,1.35c-1.06,0-1.6-0.73-1.6-2.2
		c0-1.03,0.35-3.15,1.05-6.35c0.81-3.75,1.22-6.34,1.22-7.78c0-2.39-1.2-3.58-3.59-3.58c-1.21,0-2.55,0.42-4,1.26
		c-1.45,0.85-2.93,2.27-4.44,4.25c-1.51,1.99-2.87,4.56-4.08,7.73c0.14-1.62,0.33-2.98,0.55-4.09c0.22-1.1,0.51-2.39,0.88-3.86
		c0.55-2.06,0.83-3.38,0.83-3.97c0-0.51-0.15-0.86-0.44-1.05c-0.3-0.18-0.81-0.27-1.55-0.27c-1.36,0-2.42,0.24-3.17,0.74
		c-0.76,0.5-1.3,1.28-1.63,2.35c-0.6,1.88-1.06,3.81-1.39,5.79c-0.19,0.01-0.34,0.03-0.43,0.05l-1.49,0.28
		c-2.32,0.48-4.17,0.75-5.57,0.83c0.88-2.14,1.32-4.03,1.32-5.69c0-1.43-0.33-2.52-0.99-3.28c-0.66-0.75-1.53-1.13-2.59-1.13
		c-1.22,0-2.3,0.37-3.26,1.1c-0.96,0.74-1.71,1.7-2.26,2.87c-0.55,1.18-0.83,2.39-0.83,3.64c0,1.48,0.28,2.74,0.83,3.81
		c-1.1,1.95-2.76,4.56-4.96,7.84c-0.52-6.77-0.78-12.27-0.78-16.5c0-0.99-0.23-1.7-0.69-2.12c-0.46-0.43-1.17-0.64-2.12-0.64
		c-1.25,0-2.19,0.24-2.82,0.72c-0.62,0.48-0.95,1.32-0.99,2.54v1.93c0,2.49,0.09,5.24,0.28,8.27c-0.53,0.02-1,0.28-1.44,0.77
		c-1.54,1.88-3.37,3.4-5.49,4.56c-2.11,1.16-4,1.73-5.65,1.73c-2.57,0-4.32-0.84-5.24-2.53c4.34-1.07,7.42-2.51,9.24-4.33
		c1.82-1.83,2.73-4,2.73-6.54c0-2.17-0.64-3.89-1.93-5.16c-1.29-1.27-3-1.9-5.13-1.9c-2.39,0-4.54,0.64-6.43,1.93
		c-1.89,1.28-3.37,3.02-4.44,5.21c-0.34,0.7-0.63,1.42-0.86,2.16c-0.01,0.01-0.01,0.01-0.02,0.02c-1.62,1.62-2.95,2.43-3.97,2.43
		c-0.92,0-1.38-0.65-1.38-1.93c0-0.37,0.14-1.29,0.44-2.76c0.33-1.84,0.49-3,0.49-3.48c0-2.39-1.19-3.58-3.58-3.58
		c-1.22,0-2.55,0.42-4,1.26c-1.46,0.85-2.94,2.27-4.44,4.25c-1.51,1.99-2.87,4.56-4.09,7.73c0.15-1.62,0.34-2.98,0.56-4.09
		c0.22-1.1,0.51-2.39,0.88-3.86c0.55-2.06,0.83-3.38,0.83-3.97c0-0.51-0.15-0.86-0.44-1.05c-0.3-0.18-0.81-0.27-1.55-0.27
		c-1.36,0-2.42,0.24-3.17,0.74c-0.76,0.5-1.3,1.28-1.63,2.35c-1.05,3.32-1.69,6.78-1.93,10.39c-0.36,0.1-0.69,0.34-0.99,0.69
		c-1.7,2.03-3.04,3.49-4.03,4.39c-0.99,0.9-1.84,1.35-2.54,1.35c-0.44,0-0.8-0.16-1.08-0.49c-0.27-0.33-0.41-0.78-0.41-1.33
		c0-1.65,0.42-4.6,1.27-8.83c0.55-2.9,0.83-4.74,0.83-5.51c0-1.29-0.9-1.93-2.71-1.93c-0.84,0-1.65,0.07-2.42,0.22
		c-0.19-0.81-0.42-1.37-0.69-1.69c-0.28-0.31-0.82-0.46-1.63-0.46c-2.54,0-4.94,0.8-7.2,2.4c-2.26,1.6-4.07,3.71-5.43,6.34
		c-1.37,2.63-2.05,5.42-2.05,8.36c0,2.68,0.68,4.85,2.05,6.51c1.36,1.65,3.18,2.48,5.46,2.48c2.9,0,5.31-1.54,7.22-4.63
		c0.52,1.43,1.28,2.56,2.29,3.39c1.02,0.83,2.13,1.24,3.34,1.24c1.58,0,3.22-0.64,4.91-1.93c1.34-1.03,2.63-2.24,3.86-3.63
		c0.14,1.4,0.37,2.52,0.69,3.35c0.57,1.48,1.56,2.21,2.96,2.21c1.13,0,1.97-0.3,2.51-0.91c0.53-0.61,1-1.77,1.4-3.5
		c0.55-2.25,1.27-4.38,2.15-6.4c0.89-2.02,1.78-3.65,2.68-4.88c0.9-1.24,1.63-1.85,2.18-1.85c0.4,0,0.61,0.29,0.61,0.88
		c0,0.26-0.04,0.75-0.11,1.49c-0.11,0.55-0.17,1.1-0.17,1.65c0,1.7,0.51,3.04,1.52,4.03s2.49,1.49,4.44,1.49
		c1.54,0,3.01-0.38,4.38-1.13c0.37-0.2,0.73-0.42,1.08-0.65c0.33,2.72,1.36,4.93,3.09,6.64c2.13,2.09,5.13,3.14,8.99,3.14
		c2.84,0,5.49-0.7,7.98-2.1c2.43-1.36,4.32-2.86,5.67-4.47c0.26,2.15,0.78,3.75,1.55,4.81c0.86,1.17,2.05,1.76,3.56,1.76
		c1.36,0,2.57-0.38,3.64-1.16c1.07-0.77,2.34-2.2,3.81-4.3c1.28-1.84,2.46-3.62,3.53-5.35c1.43,0.44,2.96,0.66,4.58,0.66
		c1.91,0,3.71-0.28,5.41-0.83c0.07-0.02,0.13-0.04,0.19-0.07c-0.02,0.59-0.03,1.18-0.03,1.78c0,3.24,0.28,5.59,0.86,7.06
		c0.56,1.48,1.55,2.21,2.95,2.21c1.14,0,1.97-0.3,2.51-0.91c0.53-0.61,1-1.77,1.4-3.5c0.56-2.25,1.28-4.38,2.18-6.4
		c0.9-2.02,1.79-3.65,2.65-4.88c0.87-1.24,1.54-1.85,2.02-1.85c0.4,0,0.6,0.29,0.6,0.88c0,0.88-0.24,2.48-0.71,4.8
		c-0.52,2.65-0.78,4.49-0.78,5.52c0,2.06,0.48,3.63,1.44,4.71c0.95,1.09,2.37,1.63,4.25,1.63c2.31,0,4.38-0.62,6.2-1.87
		c1.45-0.99,2.82-2.21,4.13-3.65c0.24,1.22,0.69,2.3,1.33,3.23c1.05,1.53,2.4,2.29,4.06,2.29c1.47,0,2.87-0.69,4.19-2.07
		s2.36-3.39,3.09-6.04c-0.33,2.54-0.62,4.49-0.88,5.85l-0.17,1.27c-3.93,3.01-6.98,5.69-9.13,8.03c-2.15,2.33-3.62,4.4-4.41,6.2
		c-0.79,1.8-1.19,3.57-1.19,5.3c0,1.88,0.59,3.39,1.77,4.55c1.17,1.16,2.7,1.74,4.58,1.74c3.97,0,7.15-2.76,9.54-8.28
		c2.39-5.51,4.27-13,5.63-22.45c0.15-0.96,0.64-4.03,1.49-9.22c0.95-5.4,1.43-8.55,1.43-9.43
		C509.79,319.98,509.63,319.61,509.3,319.39z M364.75,334.23c-0.33,1.58-0.86,2.85-1.6,3.8c-0.74,0.96-1.51,1.44-2.32,1.44
		s-1.44-0.28-1.9-0.83c-0.46-0.55-0.69-1.4-0.69-2.54c0-2.06,0.39-4,1.16-5.84c0.77-1.84,1.81-3.32,3.12-4.45
		c1.3-1.12,2.73-1.7,4.27-1.73L364.75,334.23z M413.36,332.57c0-2.24,0.46-4.15,1.4-5.74c0.94-1.58,2.09-2.37,3.45-2.37
		c0.66,0,1.19,0.21,1.57,0.64c0.39,0.42,0.58,0.98,0.58,1.68c0,1.36-0.62,2.56-1.87,3.59c-1.25,1.03-2.96,1.8-5.13,2.31V332.57z
		 M495.39,361.32c-1.14,2.13-2.17,3.2-3.09,3.2c-0.55,0-0.94-0.21-1.18-0.61c-0.24-0.4-0.36-0.92-0.36-1.55
		c0-1.47,0.63-3.19,1.9-5.15c1.27-1.97,3.32-4.15,6.15-6.54C497.67,355.63,496.53,359.18,495.39,361.32z M500.55,314.84
		c-0.39-0.39-0.58-0.86-0.58-1.41c0-0.26,0.09-0.61,0.28-1.05l5.13-11.48c0.33-0.74,0.76-1.28,1.3-1.63
		c0.53-0.35,1.13-0.52,1.79-0.52c0.92,0,1.74,0.33,2.45,0.99c0.72,0.66,1.08,1.49,1.08,2.48c0,1.03-0.41,2.06-1.21,3.09l-7.12,9.16
		c-0.48,0.63-1.07,0.94-1.77,0.94C501.39,315.41,500.94,315.22,500.55,314.84z M256.05,360.82c-18.66,11.21-28.53,52.85-10.39,68.88
		c21.24,12.24,20.75-14.19,23.66-27.92c11.01-0.74,21.05-4.93,26.63-13.72C311.08,360.39,277.21,346.3,256.05,360.82z
		 M270.79,393.42l2.67-15.75c0.77-3.55-0.56-6.69-4.87-6.34c-9.37-0.46-7.36,17.98-9.33,22.09c-9.05-2.93-10.87,6.47-4.19,7.7
		c0,0,0,0,0.01,0c0.08,0,1.01,0.14,2.8,0.41c-1.48,3.17-1.67,28.17-8.81,18.8c-6.13-9.91-3.55-26.4-0.24-36.37
		c2.24-6.25,5.43-11.14,9.58-14.66c8.47-8.02,29.32-7.83,29.02,6.82C287.43,386.24,281.88,392.01,270.79,393.42z M473.21,387.29
		c-10.42-5.37-18.66,8.74-22.28,17.98c0-2.98,0.08-5.87,0.24-8.69c43.62-41.98,4.44-77.76-7.51-17.13
		c-1.28,8.45-2.73,17.73-2.77,26.51c-2.93,0.97-6.5,6.99-9.57,7.55c-5.42,3.19-13.03,4.03-16.03-1.18
		c6.38-1.57,10.92-3.69,13.59-6.37c7.13-6.43,4.55-20.6-6.37-20.01c-8.2-0.16-14.48,5.74-17.06,13.07
		c-2.98,0.25-6.91,2.12-8.75,1.62c-0.76-7.37-5.25-14.12-12.91-14.61c20.06-21.65,8.99-55.01-9.3-29.92
		c-6.81,12.81-11.86,33.3-9.84,49.57c-0.58,0.05-1.26,0.4-2.05,1.13c-3.65,3.91-5.6,7.55-9.5,8.44c-5.58-1.83-1.89-9.66-0.89-17.13
		c2.32-9.09,2.73-14.82-6.5-11.2c-1.75,3.26-3.24,7.48-4.18,11.95c-0.36,0.17-0.75,0.44-1.17,0.8c-3.19,3.17-7.48,5.93-7.88,0.73
		c0.46-4.88,4.25-14.77-3.89-14.45c-9.45,0.91-14.8,10.46-18.43,19.48c-0.93-4.65,7.25-20.72,0.4-19.48
		c-11.82-1.2-10.84,28.14-8.8,34.99c1.01,3.65,5.9,4.16,8.03,1.9c2.33-3.37,3.06-10.62,5.24-14.57c2.12-5.71,9.73-16.54,7.63-3.98
		c0.01,9.85,11.29,9.52,17.78,5c0.04,4.18,0.76,8.1,2.39,11.16c6.64,7.76,15.42,2.83,22.69-6.09c0.29-0.23,0.54-0.55,0.75-0.94
		c0.5,1.58,1.08,3.09,1.77,4.51c7.54,12.4,26.15,4.66,28.01-8.76c2.45-0.15,5.53-0.35,8.1-1.08c0.2,21.1,29.22,18.7,37.33,7.29
		c0.35,2.43,0.87,4.76,1.61,6.98c3.75,4.19,8.97,1.03,9.46-4.67c1.88-6.39,4.66-16.1,10.07-19.32c3.92,4.27-9.28,32.51,7.99,24.47
		c2.4-3.46,0.81-10.53,1.75-14.28C472.36,402.2,476.65,392.2,473.21,387.29z M458.23,359.68c2.39-6.71,5.8-4.14,5.44,1.18
		c0,8.55-5.84,18.76-11.61,25.57C453.22,377.41,455.19,367.03,458.23,359.68z M380.99,360.33c2.3-7.17,6.1-5.32,5.8,0.53
		c-0.34,10.56-6.29,19.93-11.77,30.69C375.91,381.01,377.72,368.94,380.99,360.33z M384.76,413.47
		c-12.33,9.98-14.23-20.22-2.27-19.49c-1.05,5.17,0.53,10.43,4.87,13.4C386.93,410.03,386.06,412.06,384.76,413.47z M416.06,397.39
		c9.11-10.94,13.15,6.38-2.07,8.61C413.96,402.68,414.66,399.75,416.06,397.39z M316,379.21c-2.68-3.35-4.96-16.74-5.93-21.03
		c-0.24-3.91,4.97-5.36,7.55-3.29c2.2,1.52,2.62,15.35,3.33,17.82c1.62-2.57,7.14-16.35,9.66-17.78c2.21-1.52,6.87-1.29,6.82,2.11
		c0.48,1.93-9.18,16.67-9.98,18.59C325.39,379.88,319.71,382.56,316,379.21z M348.35,379.74c-3.18-1.91,6.78-18.12,7.1-20.5
		c3.69-7.81,13.97,0.52,7.96,6.49c0,0-10.47,13.48-10.47,13.48C351.82,380.77,349.7,381.1,348.35,379.74z M418.94,379.21
		c-2.68-3.35-4.96-16.74-5.93-21.03c-0.24-3.91,4.97-5.36,7.55-3.29c2.2,1.52,2.62,15.35,3.33,17.82
		c1.62-2.57,7.14-16.35,9.66-17.78c2.21-1.52,6.87-1.29,6.82,2.11c0.48,1.93-9.18,16.67-9.99,18.59
		C428.33,379.88,422.65,382.56,418.94,379.21z M457.28,198.09c-0.17-54.38-1.14-53.08-5.55-61.43c-3.32-6.42-10.99-14.37-16.8-17.68
		c-9.02-4.92-11.62-5.44-31.51-5.98l-18.68-0.55l-15.8-26.69c-8.66-14.75-16.7-27.52-17.85-28.39c-1.89-1.53-5.37-1.62-66.97-1.62
		c-61.62,0-65.11,0.09-66.99,1.62c-1.15,0.87-9.2,13.64-17.86,28.39l-15.8,26.69l-25.54,0.26l-25.64,0.19v-7.5
		c0-13.38-4.55-22.95-14.12-29.74c-10.78-7.68-26.5-7.4-36.95,0.62C72.1,83.26,68,92.37,68,105.4v7.5H53.89
		c-9.55,0-15.71,0.46-19.19,1.35c-16.79,4.37-29.31,17.04-33.23,33.65c-1.96,8.58-1.96,232.37,0,240.86
		c3.57,15.17,15.19,27.5,30.81,32.76c4.11,1.39,9.93,1.65,132.71,1.67c-8.52,11.94-15.82,23.06-22.03,33.06h19.35
		c27.68-41.89,72.01-98.03,138.85-150.15c70.49-54.99,139.22-84.57,187.16-100.71v-18.1C478.89,190.3,468.49,193.86,457.28,198.09z
		 M215.89,92.72l11.24-19.1h113.95l11.25,19.1c6.16,10.54,11.24,19.39,11.24,19.65c0,0.28-35.71,0.53-79.45,0.53
		c-43.77,0-79.47-0.25-79.47-0.53C204.65,112.11,209.72,103.26,215.89,92.72z M86.05,104.96c0.16-6.43,0.61-8.5,2.14-10.54
		c3.12-4.29,7.31-6.52,11.97-6.52c2.84,0,5.08,0.64,7.13,1.95c5.54,3.76,6.7,6.26,6.95,15.11l0.38,7.94H85.69L86.05,104.96z
		 M318.74,271.01c0.25-1.17,0.2-2.82,0.03-5.67c-0.9-15.71-12.77-28.85-28.77-31.79c-6.16-1.16-6.61-1.16-9.11-0.1
		c-1.08,0.38-2.77,1.88-3.92,3.32c-1.53,1.95-1.88,3.22-1.53,6.07c0.64,4.72,3.58,7.15,9.55,7.94c2.61,0.36,5.81,1.16,7.15,1.89
		c3.83,1.95,7.85,7.22,8.5,10.88c1.33,7.76,2.58,10.45,5.87,12.23c1.33,0.73,2.59,1.12,3.84,1.18c-6.31,4.55-12.64,9.3-18.99,14.25
		c-11.19,8.72-21.74,17.55-31.69,26.41c-22.52-11.52-34.93-36.24-29.58-61.31c3.03-14.37,14.19-29.29,27.31-36.6
		c11.97-6.61,26.98-8.49,40.54-5c19.56,5,36.09,22.06,40.18,41.6c0.11,0.5,0.22,1.01,0.3,1.52
		C331.91,262.02,325.35,266.41,318.74,271.01z M439.05,205.29c-15.55,6.42-32.29,14.05-49.83,23.16c-2.26-6.1-5.12-11.97-8.5-17.59
		c-16.61-27.51-42.06-45.81-73.83-52.97c-8.69-1.94-32-2.39-40.91-0.86c-7.78,1.41-17.77,4.28-24.01,6.96
		c-4.02,1.7-6.99,5.44-6.99,8.91c0,2.34,3.42,6.71,6.1,7.79c2.49,1.06,3.64,0.89,11.33-1.72c26.35-8.75,52.4-6.86,76,5.72
		c21.67,11.52,37.23,30.52,44.86,52.31c-6.25,3.47-12.6,7.14-19,10.99c-1.24-4.29-2.88-8.53-4.97-12.66
		c-14.65-29.19-47.61-45.37-79.49-38.93c-21.6,4.38-40.17,18.31-50.35,37.94c-5.18,9.93-7.6,18.84-8.3,29.92
		c-1.63,28.17,13.01,52.61,34.72,66c-5.44,5.15-10.69,10.29-15.74,15.41c-15.84-11.01-28.45-26.96-35.24-46.48
		c-7.24-20.63-6.96-45.19,0.8-64.85c3.29-8.39,0.17-14.72-7.31-14.72c-5.1,0-7.96,3.57-11.27,14.01
		c-4.09,13.04-5.08,19.55-5.08,34.66c0,24.01,5.71,42.78,19.01,62.96c5.26,7.95,17.43,20.63,26.08,27.14
		c0.15,0.12,0.31,0.23,0.46,0.36c-14.97,16.07-28.05,31.78-39.41,46.59c-134.12,0-138.83-0.24-142.68-1.67
		c-5.62-2.14-11.62-7.69-14.65-13.5l-2.4-4.45l-0.28-115.2c-0.17-81.72,0.08-116.36,0.72-119.2c2.06-8.34,9.2-16.1,17.6-19.22
		c2.84-0.97,33.02-1.15,193.15-1.07l189.75,0.18l4.38,2.14c5.45,2.68,10.46,7.78,13.22,13.31l2.06,4.2V205.29z M129.7,200.59
		l-2.58,2.96H73.18l-2.58-2.96c-3.77-4.19-3.22-9.19,1.33-12.84c1.69-1.43,4.55-1.63,27.6-1.63c27.93,0,29.56,0.28,31.7,4.92
		C132.92,194.71,132.48,197.46,129.7,200.59z M210.87,203.55c-3.13,0-4.19-0.54-6.33-2.96c-1.43-1.6-2.59-3.93-2.59-5.18
		c0-2.84,2.24-7.14,4.19-8.3c2.33-1.33,6.26-1.15,9.11,0.26C223.03,191.48,219.82,203.55,210.87,203.55z"/>
</g>
</svg>
